<?xml version="1.0" encoding="utf-8"?>
<!-- Generator: Adobe Illustrator 28.1.0, SVG Export Plug-In . SVG Version: 6.00 Build 0)  -->
<svg version="1.1" id="Ebene_3" xmlns="http://www.w3.org/2000/svg" xmlns:xlink="http://www.w3.org/1999/xlink" x="0px" y="0px"
	 viewBox="0 0 500 500" style="enable-background:new 0 0 500 500;" xml:space="preserve">
<style type="text/css">
	.st0{fill:none;stroke:#000000;stroke-linecap:round;stroke-linejoin:round;stroke-miterlimit:10;}
	.st1{fill:#BE1622;}
</style>
<g>
	<g>
		<path class="st0" d="M421,240.8"/>
		<path d="M407.7,118.9H301.5V94.6c0-16.8-13.7-30.5-30.5-30.5h-90.4c-16.8,0-30.5,13.7-30.5,30.5v24.3H44
			c-16.8,0-30.5,13.7-30.5,30.5V229c0,6.9,5.4,12.5,12.3,12.9l0.5,0.1v180.9c0,7.2,5.9,13.1,13.1,13.1h373c7.2,0,13.1-5.9,13.1-13.1
			c0-2.4-2-4.4-4.4-4.4c-2.4,0-4.4,2-4.4,4.4c0,2.4-2,4.4-4.4,4.4h-373c-2.4,0-4.4-2-4.4-4.4V244.2l169.7,43.5v12.7
			c0,7.2,5.9,13.1,13.1,13.1h16.2c7.2,0,13.1-5.9,13.1-13.1v-12.6l42-11.1c2.3-0.6,3.7-3,3.1-5.3c-0.6-2.3-3-3.7-5.3-3.1L247,278.8
			v-11.3c0-7.2-5.9-13.1-13.1-13.1h-16.2c-7.2,0-13.1,5.9-13.1,13.1v11.2L27.4,233.3c-0.4-0.1-0.7-0.1-1.1-0.1
			c-2.3,0-4.1-1.9-4.1-4.1v-79.6c0-12,9.8-21.8,21.8-21.8h363.7c12,0,21.8,9.8,21.8,21.8v46.5c0,2.4,2,4.4,4.4,4.4
			c2.4,0,4.4-2,4.4-4.4v-46.5C438.2,132.6,424.5,118.9,407.7,118.9z M213.4,267.5c0-2.4,2-4.4,4.4-4.4h16.2c2.4,0,4.4,2,4.4,4.4v33
			c0,2.4-2,4.4-4.4,4.4h-16.2c-2.4,0-4.4-2-4.4-4.4V267.5z M158.8,94.6c0-12,9.8-21.8,21.8-21.8H271c12,0,21.8,9.8,21.8,21.8v24.3
			h-134V94.6z"/>
	</g>
	<g>
		<path class="st1" d="M417.7,372.5c-16,0-30.9-10.2-36-26.3c-3.1-9.6-2.2-19.9,2.4-28.8c4.6-9,12.5-15.6,22.1-18.7
			c19.8-6.4,41.2,4.6,47.6,24.5c3.1,9.6,2.2,19.9-2.4,28.8c-4.6,9-12.5,15.6-22.1,18.7C425.4,371.9,421.5,372.5,417.7,372.5z
			 M417.6,303.4c-3.2,0-6.4,0.5-9.5,1.5c-7.9,2.5-14.4,8-18.3,15.5c-3.8,7.4-4.5,15.9-2,23.9c5.3,16.4,22.9,25.5,39.3,20.2
			c16.4-5.3,25.5-22.9,20.2-39.3C443.2,311.9,430.9,303.4,417.6,303.4z"/>
		<path class="st1" d="M432,403.1c-2.9,0-5.6-1.9-6.6-4.8l-2.8-8.9c-6.2,0.3-12-0.2-17.7-1.6l-4.7,8.4c-0.8,1.6-2.3,2.8-4,3.4
			c-1.7,0.6-3.6,0.4-5.2-0.4l-9.8-5c-3.4-1.7-4.7-5.9-3-9.2l4.3-8.3c-4.6-4.2-8.4-8.7-11.4-13.7l-9.3,2.6c-1.7,0.6-3.6,0.4-5.2-0.4
			c-1.6-0.8-2.8-2.3-3.4-4l-3.4-10.5c-1.2-3.6,0.8-7.5,4.4-8.6l8.9-2.8c-0.3-6.3,0.2-12.1,1.6-17.7l-8.4-4.7c-1.6-0.8-2.8-2.3-3.4-4
			c-0.6-1.7-0.4-3.6,0.4-5.2l5-9.8c0.8-1.6,2.3-2.8,4-3.4c1.7-0.6,3.6-0.4,5.2,0.4l8.3,4.3c4.2-4.6,8.7-8.4,13.7-11.4l-2.6-9.3
			c-0.6-1.7-0.4-3.6,0.4-5.2c0.8-1.6,2.3-2.8,4-3.4l10.5-3.4c3.6-1.2,7.5,0.8,8.6,4.4l2.8,8.9c6.3-0.2,12.1,0.2,17.7,1.6l4.7-8.4
			c1.7-3.3,5.9-4.7,9.2-3l9.8,5.1c1.6,0.8,2.8,2.2,3.4,4c0.6,1.7,0.4,3.6-0.4,5.2l-4.3,8.3c4.6,4.2,8.4,8.7,11.4,13.7l9.3-2.6
			c1.7-0.6,3.6-0.4,5.2,0.4c1.6,0.8,2.8,2.3,3.4,4l3.4,10.5c0.6,1.7,0.4,3.6-0.4,5.2c-0.8,1.6-2.3,2.8-4,3.4l-8.9,2.8
			c0.2,6.3-0.2,12.1-1.6,17.7l8.4,4.7c3.4,1.7,4.7,5.9,3,9.3l-5,9.8c-0.8,1.6-2.2,2.8-4,3.4c-1.8,0.6-3.6,0.4-5.2-0.4l-8.3-4.3
			c-4.3,4.6-8.7,8.4-13.7,11.4l2.6,9.3c0.6,1.7,0.4,3.6-0.4,5.2c-0.8,1.6-2.3,2.8-4,3.4l-10.5,3.4C433.4,403,432.7,403.1,432,403.1z
			 M422.3,382.7c3,0,5.7,1.9,6.6,4.8l2.8,8.9l10.9-3.2l-2.6-9.3c-1-3,0.3-6.3,3.1-8c4.4-2.6,8.3-6,11.7-9.9c2.1-2.5,5.6-3.2,8.4-1.7
			l8.3,4.3l5.5-9.9l-8.4-4.7c-2.8-1.5-4.3-4.7-3.5-7.8c1.2-5,1.6-10.1,1.2-15.2c-0.3-3.2,1.7-6.2,4.7-7.2l9.1-3.2l-3.4-10.5
			l-9.3,2.6c-3,0.9-6.3-0.3-8-3.1c-2.6-4.4-6-8.3-9.9-11.7c-2.5-2.1-3.2-5.6-1.7-8.4l4.3-8.3l-9.9-5.5l-4.7,8.4
			c-1.5,2.8-4.7,4.2-7.8,3.5c-5-1.2-10.1-1.7-15.2-1.2c-3.3,0.2-6.2-1.7-7.2-4.7l-2.8-8.9l-10.9,3.2l2.6,9.3c1,3-0.3,6.3-3.1,8
			c-4.4,2.7-8.3,6-11.7,9.9c-2.1,2.5-5.6,3.2-8.4,1.7l-8.3-4.3l-5.5,9.9l8.4,4.7c2.8,1.5,4.3,4.7,3.5,7.8c-1.2,5-1.6,10.1-1.2,15.2
			c0.3,3.2-1.7,6.2-4.7,7.2l-8.9,2.8l3.2,10.9l9.3-2.6c3-0.9,6.3,0.3,8,3.1c2.7,4.4,6,8.3,9.9,11.7c2.5,2.1,3.2,5.6,1.7,8.4L384,388
			l9.9,5.5l4.7-8.4c1.4-2.8,4.6-4.3,7.8-3.5c5,1.2,10.1,1.7,15.2,1.2C421.9,382.8,422.1,382.7,422.3,382.7z"/>
	</g>
	<g>
		<path class="st1" d="M334.5,265.4c-4.1,0-8.1-1-11.9-2.9c-6-3.2-10.5-8.5-12.5-15c-2-6.5-1.4-13.4,1.8-19.5
			c3.2-6,8.5-10.5,15-12.5c6.5-2,13.4-1.4,19.5,1.8c6,3.2,10.5,8.5,12.5,15l0,0c2,6.5,1.4,13.4-1.8,19.5c-3.2,6-8.5,10.5-15,12.5
			C339.6,265,337,265.4,334.5,265.4z M334.5,219.9c-2,0-4,0.3-5.9,0.9c-5.1,1.6-9.2,5-11.7,9.7c-2.5,4.7-3,10.1-1.4,15.1
			c1.6,5.1,5,9.2,9.7,11.7c4.7,2.5,10.1,3,15.1,1.4c5.1-1.6,9.2-5,11.7-9.7s3-10.1,1.4-15.1v0c-1.6-5.1-5-9.2-9.7-11.7
			C340.9,220.7,337.7,219.9,334.5,219.9z"/>
		<path class="st1" d="M343.6,285.6c-0.8,0-1.7-0.2-2.4-0.6c-1.2-0.7-2.1-1.7-2.5-3.1l-1.8-5.8c-3.5,0.6-7.4,0.3-11.2-0.7l-2.4,5.1
			c-1.3,2.5-4.5,3.5-7,2.2l-6.4-3.4c-1.2-0.6-2.1-1.7-2.5-3.1c-0.4-1.3-0.3-2.7,0.4-4l2.8-5.4c-2.9-2-5.4-5-7.4-8.4l-5.3,2
			c-1.3,0.4-2.7,0.3-4-0.4c-1.2-0.6-2.1-1.7-2.5-3.1l-2.1-6.9c-0.8-2.7,0.7-5.7,3.4-6.5l5.8-1.8c-0.6-3.5-0.3-7.4,0.7-11.2l-5.1-2.4
			c-2.5-1.3-3.5-4.5-2.2-7l3.4-6.4c0.6-1.2,1.7-2.1,3.1-2.5c1.3-0.4,2.7-0.3,4,0.4l5.4,2.8c2-2.9,5-5.4,8.4-7.4l-2-5.3
			c-0.8-2.7,0.7-5.7,3.4-6.5l6.9-2.2c1.3-0.4,2.7-0.3,4,0.4c1.2,0.6,2.1,1.7,2.5,3.1l1.8,5.8c3.5-0.6,7.4-0.3,11.2,0.7l2.4-5.1
			c1.4-2.5,4.5-3.5,7-2.2l6.4,3.4c2.5,1.3,3.5,4.5,2.2,7l-2.9,5.4c2.9,2,5.4,5,7.4,8.4l5.3-2c1.3-0.4,2.7-0.3,4,0.4
			c1.2,0.6,2.1,1.7,2.5,3.1l2.1,6.9c0.4,1.3,0.3,2.7-0.4,4c-0.6,1.2-1.7,2.1-3.1,2.6l-5.8,1.8c0.6,3.5,0.2,7.4-0.7,11.2l5.2,2.4
			c2.5,1.3,3.5,4.5,2.2,7l-3.4,6.4c-0.7,1.2-1.7,2.1-3.1,2.5c-1.3,0.4-2.7,0.3-4-0.4l-5.4-2.8c-2,2.9-5,5.4-8.4,7.4l2,5.3
			c0.4,1.3,0.3,2.8-0.4,4c-0.6,1.2-1.7,2.1-3.1,2.5l-6.9,2.1C344.6,285.5,344.1,285.6,343.6,285.6z M337.2,270.7
			c2.3,0,4.3,1.5,5,3.7l1.8,5.8l6.3-2.5l-2.1-5.2c-0.7-2.3,0.3-4.8,2.4-6c2.9-1.7,5.4-3.8,7.6-6.3c1.6-1.9,4.3-2.3,6.4-1.2l5.4,2.8
			l2.7-6.2l-5.2-2.2c-2.1-1.1-3.2-3.6-2.6-5.9c0.8-3.2,1.1-6.5,0.9-9.8c-0.2-2.5,1.3-4.7,3.6-5.4l5.4-1.7l-2-6.5l-5.2,2.1
			c-2.3,0.7-4.8-0.3-6-2.4c-1.7-2.9-3.8-5.4-6.3-7.6c-1.8-1.6-2.4-4.2-1.2-6.4l2.9-5.4l-6.2-2.7l-2.2,5.2c-1.1,2.1-3.6,3.2-6,2.6
			c-3.2-0.8-6.5-1.1-9.8-0.9c-2.6,0.1-4.7-1.3-5.4-3.6l-1.8-5.8l-6.3,2.5l2.1,5.2c0.7,2.3-0.3,4.8-2.4,6c-2.9,1.7-5.4,3.8-7.6,6.3
			c-1.6,1.9-4.2,2.4-6.4,1.2l-5.4-2.8l-2.7,6.2l5.2,2.2c2.1,1.1,3.2,3.6,2.6,6c-0.8,3.2-1.1,6.5-0.9,9.8c0.2,2.5-1.3,4.7-3.7,5.4
			l-5.8,1.8l2.5,6.3l5.2-2.1c2.3-0.7,4.8,0.3,6,2.4c1.7,2.9,3.8,5.4,6.3,7.6c1.8,1.6,2.4,4.2,1.2,6.4l-2.8,5.4l6.2,2.7l2.2-5.2
			c1.1-2.1,3.6-3.2,6-2.6c3.2,0.8,6.5,1.1,9.8,0.9C336.9,270.7,337.1,270.7,337.2,270.7z"/>
	</g>
	<g>
		<path class="st1" d="M420.7,250.5c-6.3,0-12.1-4.1-14.1-10.4c-2.4-7.8,2-16.1,9.7-18.5c3.8-1.2,7.8-0.8,11.2,1
			c3.5,1.8,6,4.9,7.2,8.7c2.4,7.8-2,16.1-9.7,18.5C423.6,250.2,422.1,250.5,420.7,250.5z M420.7,224.4c-1.1,0-2.2,0.2-3.3,0.5
			c-5.9,1.8-9.3,8.2-7.4,14.1c1.8,5.9,8.1,9.3,14.1,7.4c5.9-1.8,9.3-8.2,7.4-14.1c-0.9-2.9-2.8-5.2-5.5-6.6
			C424.3,224.9,422.5,224.4,420.7,224.4z"/>
		<path class="st1" d="M425.9,262c-1.3,0-2.6-0.9-3-2.2l-0.9-3.1c-2,0.1-4.1-0.1-6.1-0.6l-1.5,2.8c-0.8,1.5-2.7,2.1-4.2,1.3
			l-3.7-1.9c-0.7-0.4-1.3-1-1.5-1.8c-0.2-0.8-0.2-1.6,0.2-2.4l1.5-2.8c-1.5-1.4-2.9-3-3.9-4.7l-3.1,0.9c-1.6,0.5-3.4-0.4-3.9-2
			l-1.2-4c-0.2-0.8-0.2-1.6,0.2-2.4c0.4-0.7,1-1.3,1.8-1.5l3.1-0.9c-0.1-2,0.1-4.1,0.6-6.1l-2.8-1.5c-0.7-0.4-1.3-1-1.5-1.8
			c-0.2-0.8-0.2-1.6,0.2-2.4l1.9-3.7c0.4-0.7,1-1.3,1.8-1.5c0.8-0.2,1.6-0.2,2.4,0.2l2.8,1.5c1.4-1.5,3-2.9,4.7-3.9l-1-3.1
			c-0.2-0.8-0.2-1.6,0.2-2.4s1-1.3,1.8-1.5l4-1.2c1.6-0.5,3.4,0.4,3.9,2l0.9,3.1c2.1-0.1,4.1,0.1,6.1,0.6l1.5-2.8
			c0.8-1.5,2.7-2.1,4.2-1.3l3.7,1.9c0.7,0.4,1.3,1,1.5,1.8s0.2,1.6-0.2,2.4l-1.5,2.8c1.5,1.4,2.9,3,3.9,4.7l3.1-0.9
			c0.8-0.2,1.6-0.2,2.4,0.2c0.7,0.4,1.3,1,1.5,1.8l1.2,4c0.5,1.6-0.4,3.4-2,3.9l-3.1,1c0.1,2.1-0.1,4.1-0.6,6.1l2.8,1.5
			c1.5,0.8,2.1,2.7,1.3,4.2l-1.9,3.7c-0.8,1.5-2.7,2.1-4.2,1.3l-2.8-1.5c-1.4,1.5-3,2.9-4.7,3.9l0.9,3.1c0.5,1.6-0.4,3.4-2,3.9
			l-4,1.2C426.5,262,426.2,262,425.9,262z M422.2,253.3c1.4,0,2.6,0.9,3,2.2l0.9,3l3.2-1l-0.9-3c-0.4-1.4,0.2-2.9,1.4-3.6
			c1.6-0.9,3.1-2.2,4.3-3.6c1-1.1,2.5-1.4,3.8-0.7l2.8,1.5l1.6-3l-2.8-1.4c-1.3-0.7-1.9-2.1-1.5-3.6c0.5-1.8,0.6-3.7,0.5-5.6
			c-0.1-1.5,0.8-2.8,2.2-3.2l3-0.9l-1-3.2l-3,0.9c-1.4,0.4-2.9-0.1-3.6-1.4c-1-1.6-2.2-3.1-3.6-4.3c-1.1-1-1.4-2.5-0.7-3.8l1.4-2.8
			l-3-1.6l-1.4,2.8c-0.7,1.3-2.1,1.9-3.5,1.6c-1.8-0.5-3.7-0.6-5.6-0.5c-1.3,0.1-2.8-0.8-3.2-2.2l-0.9-3l-3.2,1l0.9,3
			c0.4,1.4-0.1,2.8-1.4,3.6c-1.6,1-3.1,2.2-4.3,3.6c-0.9,1.1-2.5,1.4-3.8,0.7l-2.8-1.4l-1.6,3l2.8,1.5c1.3,0.7,1.9,2.1,1.5,3.5
			c-0.5,1.8-0.6,3.7-0.5,5.6c0.1,1.5-0.8,2.8-2.2,3.2l-3,0.9l1,3.2l3-0.9c1.4-0.4,2.9,0.1,3.6,1.4c1,1.6,2.2,3.1,3.6,4.3
			c1.1,1,1.4,2.5,0.7,3.8l-1.4,2.8l3,1.6l1.4-2.8c0.7-1.3,2.1-1.9,3.6-1.5c1.8,0.5,3.7,0.6,5.6,0.5
			C422.1,253.3,422.1,253.3,422.2,253.3z M402.6,246.5C402.6,246.5,402.6,246.5,402.6,246.5C402.6,246.5,402.6,246.5,402.6,246.5z
			 M441.3,240.9C441.3,240.9,441.3,240.9,441.3,240.9C441.3,240.9,441.3,240.9,441.3,240.9z M409.9,217.9
			C409.9,217.9,409.9,217.9,409.9,217.9L409.9,217.9z"/>
	</g>
</g>
</svg>
